<?xml version="1.0" encoding="utf-8"?>
<!-- Generator: Adobe Illustrator 24.1.1, SVG Export Plug-In . SVG Version: 6.00 Build 0)  -->
<svg version="1.1" id="Capa_1" xmlns="http://www.w3.org/2000/svg" xmlns:xlink="http://www.w3.org/1999/xlink" x="0px" y="0px"
	 viewBox="0 0 81.4 44.4" style="enable-background:new 0 0 81.4 44.4;" xml:space="preserve">
<style type="text/css">
	.st0{display:none;stroke:#000000;stroke-width:8;stroke-miterlimit:10;}
	.st1{display:none;fill:#FFFFFF;}
	.st2{display:none;fill:#FDFDFD;}
	.st3{fill:#FFFFFF;}
</style>
<polyline class="st0" points="-0.37,46.46 -0.37,24.26 14.43,24.26 14.43,2.06 36.63,2.06 36.63,24.26 44.03,24.26 44.03,2.06 
	66.23,2.06 66.23,24.26 81.03,24.26 81.03,46.46 "/>
<rect x="-0.37" y="24.26" class="st1" width="81.4" height="22.2"/>
<rect x="44.03" y="31.66" class="st1" width="7.4" height="7.4"/>
<rect x="29.23" y="31.66" class="st1" width="7.4" height="7.4"/>
<rect x="14.43" y="2.06" class="st2" width="22.2" height="22.2"/>
<rect x="44.03" y="2.06" class="st2" width="22.2" height="22.2"/>
<rect x="21.83" y="9.46" class="st1" width="7.4" height="7.4"/>
<rect x="51.43" y="9.46" class="st1" width="7.4" height="7.4"/>
<path class="st3" d="M-0.37,39.06v7.4h81.4v-7.4H-0.37z"/>
</svg>
