<?xml version="1.0" encoding="utf-8"?>
<!-- Generator: Adobe Illustrator 24.1.1, SVG Export Plug-In . SVG Version: 6.00 Build 0)  -->
<svg version="1.1" id="Capa_1" xmlns="http://www.w3.org/2000/svg" xmlns:xlink="http://www.w3.org/1999/xlink" x="0px" y="0px"
	 viewBox="0 0 81.4 29.6" style="enable-background:new 0 0 81.4 29.6;" xml:space="preserve">
<style type="text/css">
	.st0{stroke:#000000;stroke-width:8;stroke-miterlimit:10;}
	.st1{fill:#FFFFFF;}
	.st2{fill:none;stroke:#000000;stroke-width:4;stroke-miterlimit:10;}
	.st3{display:none;fill:#FFFFFF;}
</style>
<polyline class="st0" points="81.03,-1.54 81.03,20.66 73.63,20.66 73.63,28.03 58.83,28.03 58.83,20.66 21.83,20.66 21.83,28.06 
	7.15,28.06 7.15,20.66 -0.37,20.66 -0.37,-1.54 "/>
<rect x="7.03" y="16.71" class="st1" width="14.8" height="11.35"/>
<rect x="58.83" y="16.71" class="st1" width="14.8" height="11.35"/>
<rect x="4.14" y="10.53" class="st2" width="73.89" height="11.35"/>
<rect x="-0.37" y="-1.54" class="st3" width="81.4" height="22.2"/>
<rect x="7.03" y="-1.54" class="st3" width="66.6" height="7.4"/>
<polygon class="st3" points="81.03,-1.54 81.03,13.26 -0.37,13.26 -0.37,-1.54 7.03,-1.54 7.03,5.86 73.63,5.86 73.63,-1.54 "/>
</svg>
