<?xml version="1.0" encoding="utf-8"?>
<!-- Generator: Adobe Illustrator 24.1.1, SVG Export Plug-In . SVG Version: 6.00 Build 0)  -->
<svg version="1.1" id="Capa_1" xmlns="http://www.w3.org/2000/svg" xmlns:xlink="http://www.w3.org/1999/xlink" x="0px" y="0px"
	 viewBox="0 0 81.4 74" style="enable-background:new 0 0 81.4 74;" xml:space="preserve">
<style type="text/css">
	.st0{stroke:#000000;stroke-width:8;stroke-miterlimit:10;}
	.st1{fill:#35901D;}
	.st2{fill:#35901D;stroke:#000000;stroke-width:4;stroke-miterlimit:10;}
	.st3{fill:#42B221;}
	.st4{fill:#023919;}
	.st5{fill:#FDFDFD;}
	.st6{fill:#043D17;}
	.st7{fill:#006837;}
	.st8{fill:#84C434;}
	.st9{fill:#8CC63F;}
</style>
<polygon class="st0" points="80.91,44.67 80.91,66.87 73.51,66.87 73.51,74.24 58.71,74.24 58.71,66.87 21.71,66.87 21.71,74.27 
	7.03,74.27 7.03,66.87 -0.49,66.87 -0.49,44.67 "/>
<polygon class="st0" points="80.91,22.47 80.91,44.67 -0.49,44.67 -0.49,22.47 14.31,22.47 14.31,0.27 36.51,0.27 36.51,22.47 
	43.91,22.47 43.91,0.27 66.11,0.27 66.11,22.47 "/>
<rect x="6.91" y="62.92" class="st1" width="14.8" height="11.35"/>
<rect x="58.71" y="62.92" class="st1" width="14.8" height="11.35"/>
<rect x="4.02" y="56.74" class="st2" width="73.89" height="11.35"/>
<rect x="-0.49" y="44.67" class="st3" width="81.4" height="22.2"/>
<rect x="-0.49" y="22.47" class="st3" width="81.4" height="22.2"/>
<rect x="29.11" y="29.87" class="st4" width="7.4" height="7.4"/>
<rect x="43.91" y="29.87" class="st4" width="7.4" height="7.4"/>
<rect x="14.31" y="0.27" class="st5" width="22.2" height="22.2"/>
<rect x="43.91" y="0.27" class="st5" width="22.2" height="22.2"/>
<rect x="21.71" y="7.67" class="st6" width="7.4" height="7.4"/>
<rect x="51.31" y="7.67" class="st6" width="7.4" height="7.4"/>
<rect x="6.91" y="44.67" class="st7" width="66.6" height="7.4"/>
<path class="st8" d="M-0.49,37.27v7.4h81.4v-7.4H-0.49z"/>
<polygon class="st9" points="80.91,44.67 80.91,59.47 -0.49,59.47 -0.49,44.67 6.91,44.67 6.91,52.07 73.51,52.07 73.51,44.67 "/>
</svg>
