<?xml version="1.0" encoding="utf-8"?>
<!-- Generator: Adobe Illustrator 24.1.1, SVG Export Plug-In . SVG Version: 6.00 Build 0)  -->
<svg version="1.1" id="Capa_1" xmlns="http://www.w3.org/2000/svg" xmlns:xlink="http://www.w3.org/1999/xlink" x="0px" y="0px"
	 viewBox="0 0 100 100" style="enable-background:new 0 0 100 100;" xml:space="preserve">
<style type="text/css">
	.st0{display:none;}
	.st1{display:inline;fill:#2B262A;}
	.st2{display:inline;fill:#FFFFFF;}
	.st3{display:inline;fill:#333333;}
	.st4{display:inline;fill:none;}
	.st5{display:inline;fill:#39B54A;}
	.st6{display:inline;fill:#555452;}
	.st7{display:inline;fill:#4D4D4D;}
	.st8{fill:#FFFFFF;}
</style>
<g id="Capa_1_1_" class="st0">
	<path class="st1" d="M-5.5,50.5v-36c0-2.2,1.8-4,4-4l0,0c2.2,0,4-1.8,4-4v-8c0-2.2,1.8-4,4-4h24c2.2,0,4,1.8,4,4v8c0,2.2,1.8,4,4,4
		h24c2.2,0,4-1.8,4-4v-8c0-2.2,1.8-4,4-4h24c2.2,0,4,1.8,4,4v8c0,2.2,1.8,4,4,4l0,0c2.2,0,4,1.8,4,4v36"/>
	<path class="st2" d="M18.5,10.5L18.5,10.5c-4.4,0-8,3.6-8,8v16c0,4.4,3.6,8,8,8l0,0c4.4,0,8-3.6,8-8v-16
		C26.5,14.1,22.9,10.5,18.5,10.5z"/>
	<path class="st2" d="M82.5,10.5L82.5,10.5c-4.4,0-8,3.6-8,8v16c0,4.4,3.6,8,8,8l0,0c4.4,0,8-3.6,8-8v-16
		C90.5,14.1,86.9,10.5,82.5,10.5z"/>
	<polyline class="st3" points="-59,49.4 -59,105.4 -171,105.4 -171,49.4 	"/>
	<line class="st4" x1="-99" y1="9.4" x2="-131" y2="9.4"/>
	<path class="st5" d="M-147,9.4L-147,9.4c-4.4,0-8,3.6-8,8v16c0,4.4,3.6,8,8,8l0,0c4.4,0,8-3.6,8-8v-16C-139,13-142.6,9.4-147,9.4z"
		/>
	<path class="st5" d="M-99,41.4h-32c-4.4,0-8,3.6-8,8l0,0c0,4.4,3.6,8,8,8h32c4.4,0,8-3.6,8-8l0,0C-91,45-94.6,41.4-99,41.4z"/>
	<path class="st5" d="M-83,9.4L-83,9.4c-4.4,0-8,3.6-8,8v16c0,4.4,3.6,8,8,8l0,0c4.4,0,8-3.6,8-8v-16C-75,13-78.6,9.4-83,9.4z"/>
	<path class="st6" d="M-27,97.4v8h-32v-32h8c4.4,0,8,3.6,8,8l0,0c0,4.4,3.6,8,8,8l0,0C-30.6,89.4-27,93-27,97.4z"/>
	<path class="st7" d="M-203,105.4h32v-32h-8c-4.4,0-8,3.6-8,8l0,0c0,4.4-3.6,8-8,8l0,0c-4.4,0-8,3.6-8,8"/>
	
		<image style="display:inline;overflow:visible;enable-background:new    ;" width="1920" height="976" xlink:href="../../Videos/Captures/Taller4 --Tarea2 - 2 - Android - Unity 2021.3.20f1 Personal_ _DX11_ 22-10-2023 17_27_35.png"  transform="matrix(0.2808 0 0 0.2808 -310.4239 -120.8334)">
	</image>
</g>
<g id="Capa_5" class="st0">
</g>
<g id="Capa_3" class="st0">
</g>
<g id="Capa_4" class="st0">
</g>
<path class="st8" d="M82-5C71-5,61.7,1.1,59,10.8c-1,3.6-4.4,6.1-8.4,6.1h-1.4c-3.8,0-7.2-2.5-8.2-6.1C38.3,1.1,29-5,18-5
	C11.4-5,5.4-2.9,1,1c-4.3,3.8-7,9.3-7,16V105h32V49c0-4.4,3.6-8,8-8h32c2.2,0,4.2,0.9,5.7,2.3c1.4,1.5,2.3,3.5,2.3,5.7v56h32V17
	C106,3.8,95.2-5,82-5z M26,33c0,2.2-0.9,4.2-2.3,5.7C22.2,40.1,20.2,41,18,41c-4.4,0-8-3.6-8-8V17c0-4.4,3.6-8,8-8s8,3.6,8,8V33z
	 M74,17c0-4.4,3.6-8,8-8s8,3.6,8,8v16c0,2.2-0.9,4.2-2.3,5.7C86.2,40.1,84.2,41,82,41c-4.4,0-8-3.6-8-8V17z"/>
</svg>
