<?xml version="1.0" encoding="utf-8"?>
<!-- Generator: Adobe Illustrator 24.1.1, SVG Export Plug-In . SVG Version: 6.00 Build 0)  -->
<svg version="1.1" id="Capa_1" xmlns="http://www.w3.org/2000/svg" xmlns:xlink="http://www.w3.org/1999/xlink" x="0px" y="0px"
	 viewBox="0 0 100 100" style="enable-background:new 0 0 100 100;" xml:space="preserve">
<style type="text/css">
	.st0{display:none;fill:#2B262A;}
	.st1{fill:#FFFFFF;}
	.st2{display:none;fill:#FFFFFF;}
</style>
<path class="st0" d="M-5.5,50.5v-36c0-2.2,1.8-4,4-4h0c2.2,0,4-1.8,4-4v-8c0-2.2,1.8-4,4-4h24c2.2,0,4,1.8,4,4v8c0,2.2,1.8,4,4,4h24
	c2.2,0,4-1.8,4-4v-8c0-2.2,1.8-4,4-4h24c2.2,0,4,1.8,4,4v8c0,2.2,1.8,4,4,4h0c2.2,0,4,1.8,4,4v36"/>
<path class="st1" d="M18.5,10.5L18.5,10.5c-4.4,0-8,3.6-8,8v16c0,4.4,3.6,8,8,8h0c4.4,0,8-3.6,8-8v-16
	C26.5,14.1,22.9,10.5,18.5,10.5z"/>
<path class="st2" d="M66.5,42.5h-32c-4.4,0-8,3.6-8,8v0c0,4.4,3.6,8,8,8h32c4.4,0,8-3.6,8-8v0C74.5,46.1,70.9,42.5,66.5,42.5z"/>
<path class="st1" d="M82.5,10.5L82.5,10.5c-4.4,0-8,3.6-8,8v16c0,4.4,3.6,8,8,8h0c4.4,0,8-3.6,8-8v-16
	C90.5,14.1,86.9,10.5,82.5,10.5z"/>
</svg>
