<?xml version="1.0" encoding="utf-8"?>
<!-- Generator: Adobe Illustrator 24.1.1, SVG Export Plug-In . SVG Version: 6.00 Build 0)  -->
<svg version="1.1" xmlns="http://www.w3.org/2000/svg" xmlns:xlink="http://www.w3.org/1999/xlink" x="0px" y="0px"
	 viewBox="0 0 100 100" style="enable-background:new 0 0 100 100;" xml:space="preserve">
<style type="text/css">
	.st0{display:none;}
	.st1{fill:#2B262A;}
	.st2{fill:#FFFFFF;}
	.st3{display:inline;fill:#333333;}
	.st4{display:inline;fill:#39B54A;}
	.st5{display:inline;fill:#555452;}
	.st6{display:inline;fill:#4D4D4D;}
	.st7{display:none;opacity:0.4;fill:#FFFFFF;}
</style>
<g id="Capa_1" class="st0">
	<path class="st1" d="M-5.5,50.5v-36c0-2.2,1.8-4,4-4h0c2.2,0,4-1.8,4-4v-8c0-2.2,1.8-4,4-4h24c2.2,0,4,1.8,4,4v8c0,2.2,1.8,4,4,4
		h24c2.2,0,4-1.8,4-4v-8c0-2.2,1.8-4,4-4h24c2.2,0,4,1.8,4,4v8c0,2.2,1.8,4,4,4h0c2.2,0,4,1.8,4,4v36"/>
	<path class="st2" d="M18.5,10.5L18.5,10.5c-4.4,0-8,3.6-8,8v16c0,4.4,3.6,8,8,8h0c4.4,0,8-3.6,8-8v-16
		C26.5,14.1,22.9,10.5,18.5,10.5z"/>
	<path class="st2" d="M82.5,10.5L82.5,10.5c-4.4,0-8,3.6-8,8v16c0,4.4,3.6,8,8,8h0c4.4,0,8-3.6,8-8v-16
		C90.5,14.1,86.9,10.5,82.5,10.5z"/>
	<polyline class="st3" points="-59,49.4 -59,105.4 -171,105.4 -171,49.4 	"/>
	<line class="st3" x1="-99" y1="9.4" x2="-131" y2="9.4"/>
	<path class="st4" d="M-147,9.4L-147,9.4c-4.4,0-8,3.6-8,8v16c0,4.4,3.6,8,8,8h0c4.4,0,8-3.6,8-8v-16C-139,13-142.6,9.4-147,9.4z"/>
	<path class="st4" d="M-99,41.4h-32c-4.4,0-8,3.6-8,8v0c0,4.4,3.6,8,8,8h32c4.4,0,8-3.6,8-8v0C-91,45-94.6,41.4-99,41.4z"/>
	<path class="st4" d="M-83,9.4L-83,9.4c-4.4,0-8,3.6-8,8v16c0,4.4,3.6,8,8,8h0c4.4,0,8-3.6,8-8v-16C-75,13-78.6,9.4-83,9.4z"/>
	<path class="st5" d="M-27,97.4v8h-32v-32h8c4.4,0,8,3.6,8,8v0c0,4.4,3.6,8,8,8h0C-30.6,89.4-27,93-27,97.4z"/>
	<path class="st6" d="M-203,105.4h32v-32h-8c-4.4,0-8,3.6-8,8v0c0,4.4-3.6,8-8,8h0c-4.4,0-8,3.6-8,8"/>
	
		<image style="overflow:visible;" width="1920" height="976" xlink:href="../../Videos/Captures/Taller4 --Tarea2 - 2 - Android - Unity 2021.3.20f1 Personal_ _DX11_ 22-10-2023 17_27_35.png"  transform="matrix(0.2808 0 0 0.2808 -310.4239 -120.8334)">
	</image>
</g>
<g id="Capa_2">
	<path class="st7" d="M-59,9.4v40h-112v-40h0.2c0-13.2,10.7-22,23.8-22c11,0,20.3,6.2,23,15.9c1,3.6,4.4,6.1,8.2,6.1l1.4,0
		c4,0,7.4-2.5,8.4-6.1c2.7-9.7,12-15.9,23-15.9c13.2,0,23.8,8.9,23.8,22H-59z"/>
	<path class="st2" d="M106,41v32.1H-6V41l0,0c0-13.2,10.8-22,24-22c11,0,20.3,6.2,23,15.9c1,3.6,4.4,6.1,8.2,6.1h1.4
		c4,0,7.4-2.5,8.4-6.1C61.7,25.2,71,19,82,19C95.2,19,106,27.9,106,41L106,41z"/>
</g>
<g id="Capa_5">
</g>
<g id="Capa_3">
</g>
<g id="Capa_4">
</g>
</svg>
