<?xml version="1.0" encoding="utf-8"?>
<!-- Generator: Adobe Illustrator 24.1.1, SVG Export Plug-In . SVG Version: 6.00 Build 0)  -->
<svg version="1.1" xmlns="http://www.w3.org/2000/svg" xmlns:xlink="http://www.w3.org/1999/xlink" x="0px" y="0px"
	 viewBox="0 0 10 10" style="enable-background:new 0 0 10 10;" xml:space="preserve">
<style type="text/css">
	.st0{display:none;}
	.st1{display:inline;}
	.st2{fill:#FFFFFF;}
</style>
<g id="Capa_1" class="st0">
	<g class="st1">
		<path class="st2" d="M-5.1,1.3l0.5,0.9C-4.4,2.7-4,3-3.4,3.1l1,0.2L-3.1,4c-0.4,0.4-0.6,0.9-0.5,1.4l0.2,1L-4.4,6
			c-0.2-0.1-0.5-0.2-0.8-0.2S-5.6,5.8-5.9,6l-0.9,0.5l0.2-1C-6.5,4.9-6.7,4.4-7.1,4l-0.8-0.7l1-0.2c0.5-0.1,1-0.4,1.2-0.9L-5.1,1.3
			 M-5.1-0.2c-0.2,0-0.4,0.1-0.6,0.3l-0.8,1.6c-0.1,0.2-0.3,0.3-0.5,0.3l-1.8,0.3c-0.5,0.1-0.7,0.7-0.3,1.1l1.3,1.3
			C-7.6,4.8-7.6,5-7.6,5.2L-7.9,7C-8,7.4-7.7,7.8-7.3,7.8c0.1,0,0.2,0,0.3-0.1l1.6-0.9c0.1,0,0.2-0.1,0.3-0.1s0.2,0,0.3,0.1l1.6,0.9
			c0.1,0,0.2,0.1,0.3,0.1c0.4,0,0.7-0.3,0.6-0.7l-0.3-1.8c0-0.2,0-0.4,0.2-0.5l1.3-1.3c0.4-0.4,0.2-1-0.3-1.1l-1.8-0.3
			c-0.2,0-0.4-0.2-0.5-0.3l-0.8-1.6C-4.7-0.1-4.9-0.2-5.1-0.2L-5.1-0.2z"/>
	</g>
</g>
<g id="Capa_2">
	<g>
		<path class="st2" d="M5,1c2.2,0,4,1.8,4,4S7.2,9,5,9S1,7.2,1,5S2.8,1,5,1 M5,0C2.2,0,0,2.2,0,5s2.2,5,5,5s5-2.2,5-5S7.8,0,5,0L5,0
			z"/>
	</g>
</g>
</svg>
