<?xml version="1.0" encoding="utf-8"?>
<!-- Generator: Adobe Illustrator 24.1.1, SVG Export Plug-In . SVG Version: 6.00 Build 0)  -->
<svg version="1.1" xmlns="http://www.w3.org/2000/svg" xmlns:xlink="http://www.w3.org/1999/xlink" x="0px" y="0px"
	 viewBox="0 0 10 10" style="enable-background:new 0 0 10 10;" xml:space="preserve">
<style type="text/css">
	.st0{fill:#FFFFFF;}
	.st1{display:none;}
	.st2{display:inline;}
	.st3{fill:#FF0000;}
</style>
<g id="Capa_1">
	<g>
		<path class="st0" d="M-4.6,0.1l0.8,1.6c0.1,0.2,0.3,0.3,0.5,0.3l1.8,0.3C-1,2.4-0.8,3.1-1.1,3.4l-1.3,1.3C-2.6,4.8-2.7,5-2.6,5.2
			L-2.3,7c0.1,0.5-0.4,0.9-0.9,0.6l-1.6-0.9c-0.2-0.1-0.4-0.1-0.6,0L-7,7.7C-7.5,7.9-8,7.6-7.9,7l0.3-1.8c0-0.2,0-0.4-0.2-0.5
			l-1.3-1.3c-0.4-0.4-0.2-1,0.3-1.1l1.8-0.3c0.2,0,0.4-0.2,0.5-0.3l0.8-1.6C-5.4-0.3-4.8-0.3-4.6,0.1z"/>
	</g>
</g>
<g id="Capa_2" class="st1">
	<g class="st2">
		<path class="st3" d="M2.2,2.7L2.2,2.7c-0.4,0.4-0.4,1,0,1.4l3.1,3.1c0.4,0.4,1,0.4,1.4,0l0,0c0.4-0.4,0.4-1,0-1.4L3.6,2.7
			C3.3,2.3,2.6,2.3,2.2,2.7z"/>
	</g>
	<g class="st2">
		<path class="st3" d="M7.3,2.3L7.3,2.3c-0.4-0.4-1-0.4-1.4,0L2.8,5.4c-0.4,0.4-0.4,1,0,1.4l0,0c0.4,0.4,1,0.4,1.4,0l3.1-3.1
			C7.7,3.3,7.7,2.7,7.3,2.3z"/>
	</g>
</g>
</svg>
