<?xml version="1.0" encoding="utf-8"?>
<!-- Generator: Adobe Illustrator 24.1.1, SVG Export Plug-In . SVG Version: 6.00 Build 0)  -->
<svg version="1.1" id="Capa_1" xmlns="http://www.w3.org/2000/svg" xmlns:xlink="http://www.w3.org/1999/xlink" x="0px" y="0px"
	 viewBox="0 0 500 500" style="enable-background:new 0 0 500 500;" xml:space="preserve">
<style type="text/css">
	.st0{fill:#FFFFFF;stroke:#FFFFFF;stroke-width:80;stroke-miterlimit:10;}
</style>
<path class="st0" d="M97.1,214.3C113.3,144.5,176.1,92.2,251,93c85.1,0.9,154.4,70.6,154.7,155.7c0.3,74-50.8,136-119.6,152.6
	c-21.2,5.1-36.1,24.1-36.1,45.9v0c0,30.5,28.4,53,58.1,46c117.5-28,202.9-138.9,190.8-267.5C487.7,107,393,12.3,274.3,1.1
	C145.4-11,34.2,74.8,6.6,192.8C-0.3,222,21.9,250,51.8,250h0C73.4,250,92.2,235.3,97.1,214.3z"/>
</svg>
